# xmcd CD database file
#
# Track frame offsets:
#	150
#	16483
#	28511
#	43338
#	58119
#	72346
#	86540
#	98730
#	112048
#	130582
#	144430
#	160240
#	176114
#	193811
#	210883
#
# Disc length: 3010 seconds
#
# Revision: 0
# Processed by: cddbd v1.5.1PL0 Copyright (c) Steve Scherf et al.
# Submitted via: CDex 1.51
#
DISCID=d10bc00f
DTITLE=Margo O'Donnell - I'm Still Here
DYEAR=1900
DGENRE=Country
TTITLE0=I'm Still Here
TTITLE1=Mother's Rose
TTITLE2=False Hearted Sweetheart
TTITLE3=When Those Golden Bells
TTITLE4=Its Good Two See You
TTITLE5=New Patches
TTITLE6=Broken Engagement
TTITLE7=The Old School Yard
TTITLE8=Cottage In Glendown
TTITLE9=Over The Years
TTITLE10=Grandma's House
TTITLE11=Hard Times
TTITLE12=A Mothers Prayer
TTITLE13=The Way Back Home
TTITLE14=Heavens Grocery Store
EXTD=
EXTT0=
EXTT1=
EXTT2=
EXTT3=
EXTT4=
EXTT5=
EXTT6=
EXTT7=
EXTT8=
EXTT9=
EXTT10=
EXTT11=
EXTT12=
EXTT13=
EXTT14=
PLAYORDER=
